<svg xmlns="http://www.w3.org/2000/svg" width="128" height="32" viewBox="0 0 128 32">
    <g fill="none" fill-rule="nonzero">
        <g fill="#212221">
            <path d="M47.157 6.857c1.165 0 2.12.133 2.885.4.764.267 1.395.629 1.854 1.124.458.495.783 1.086.993 1.79a8.9 8.9 0 0 1 .287 2.324v8.115c-.554.114-1.338.266-2.331.438-.994.171-2.217.247-3.63.247-.899 0-1.701-.076-2.427-.228-.726-.153-1.357-.42-1.873-.781a3.32 3.32 0 0 1-1.204-1.41c-.286-.571-.42-1.276-.42-2.114 0-.8.153-1.486.478-2.038a3.784 3.784 0 0 1 1.299-1.334 6.088 6.088 0 0 1 1.872-.723 10.309 10.309 0 0 1 2.179-.229c.516 0 .955.02 1.356.057.402.038.707.095.956.172v-.362c0-.667-.21-1.2-.612-1.6-.401-.4-1.108-.61-2.102-.61-.668 0-1.318.057-1.968.153a8.725 8.725 0 0 0-1.681.4l-.497-3.143c.23-.076.516-.153.86-.229.344-.076.707-.152 1.108-.21a21.55 21.55 0 0 1 1.28-.152c.44-.019.88-.057 1.338-.057zm.325 11.429c.382 0 .745 0 1.108-.02.344-.018.63-.037.84-.076v-2.952a6.838 6.838 0 0 0-.706-.114 7.485 7.485 0 0 0-.86-.057c-.363 0-.707.019-1.032.057a2.84 2.84 0 0 0-.86.247c-.248.115-.44.286-.573.496-.134.21-.21.476-.21.78 0 .61.21 1.03.611 1.277.402.247.956.362 1.682.362zM60.303 3.257c0 .724-.23 1.276-.688 1.695-.459.42-1.013.61-1.643.61-.63 0-1.185-.21-1.644-.61-.458-.419-.687-.971-.687-1.695 0-.724.229-1.276.687-1.695.459-.42 1.013-.61 1.644-.61.63 0 1.184.21 1.643.61.458.4.688.971.688 1.695zM59.94 21.01h-3.917V7.238h3.917V21.01zM71.633 10.686c-.344-.096-.764-.172-1.242-.267a7.697 7.697 0 0 0-1.528-.152c-.249 0-.535.019-.88.057a4.36 4.36 0 0 0-.783.152V21.01h-3.917V7.962a21.45 21.45 0 0 1 2.484-.686c.956-.21 2.026-.324 3.191-.324.21 0 .459.02.765.038.305.02.592.058.898.115.305.038.592.095.898.152.305.057.554.133.764.229l-.65 3.2zM87.206 14.133c0 1.105-.153 2.096-.478 2.99a6.34 6.34 0 0 1-1.414 2.287c-.611.628-1.376 1.104-2.254 1.447-.898.343-1.911.514-3.058.514a20.256 20.256 0 0 1-3.019-.228 27.887 27.887 0 0 1-1.433-.248c-.458-.095-.86-.19-1.203-.305V3.524L78.264.457v7.105c.44-.19.898-.343 1.375-.438.478-.114.975-.153 1.529-.153.974 0 1.853.172 2.599.515a5.233 5.233 0 0 1 1.891 1.447c.516.629.898 1.39 1.166 2.267.248.857.382 1.848.382 2.933zm-3.994-.114c0-2.514-.936-3.771-2.79-3.771-.4 0-.802.057-1.203.152-.401.114-.707.229-.955.4v7.105c.19.038.44.057.745.095.306.019.63.038.974.038 1.07 0 1.873-.362 2.427-1.105.516-.743.802-1.714.802-2.914zM94.543 6.857c1.166 0 2.121.133 2.885.4.765.267 1.395.629 1.854 1.124.458.495.783 1.086.993 1.79a8.9 8.9 0 0 1 .287 2.324v8.115c-.554.114-1.338.266-2.331.438-.994.171-2.217.247-3.63.247-.899 0-1.701-.076-2.427-.228-.726-.153-1.357-.42-1.873-.781a3.32 3.32 0 0 1-1.204-1.41c-.286-.571-.42-1.276-.42-2.114 0-.8.153-1.486.478-2.038a3.784 3.784 0 0 1 1.3-1.334 6.088 6.088 0 0 1 1.872-.723 10.309 10.309 0 0 1 2.178-.229c.516 0 .955.02 1.356.057.402.038.707.095.956.172v-.362c0-.667-.21-1.2-.612-1.6-.4-.4-1.108-.61-2.101-.61-.67 0-1.319.057-1.968.153a8.725 8.725 0 0 0-1.682.4l-.497-3.143c.23-.076.516-.153.86-.229.344-.076.707-.152 1.108-.21a21.55 21.55 0 0 1 1.28-.152c.44-.019.88-.057 1.338-.057zm.325 11.429c.382 0 .745 0 1.108-.02.344-.018.63-.037.84-.076v-2.952a6.838 6.838 0 0 0-.706-.114 7.485 7.485 0 0 0-.86-.057c-.363 0-.707.019-1.032.057a2.84 2.84 0 0 0-.86.247c-.248.115-.44.286-.573.496-.134.21-.21.476-.21.78 0 .61.21 1.03.611 1.277.383.247.956.362 1.682.362zM107.517 18.21c.726 0 1.223-.077 1.529-.21.305-.133.439-.419.439-.819 0-.324-.191-.59-.573-.82-.382-.228-.975-.494-1.758-.8a17.43 17.43 0 0 1-1.662-.704 5.23 5.23 0 0 1-1.28-.876 3.616 3.616 0 0 1-.822-1.22c-.191-.475-.287-1.047-.287-1.694 0-1.296.478-2.324 1.452-3.067.956-.743 2.293-1.124 3.975-1.124.84 0 1.643.076 2.426.229.765.152 1.376.305 1.835.476l-.688 3.048a13.926 13.926 0 0 0-1.49-.42 8.514 8.514 0 0 0-1.797-.19c-1.223 0-1.834.343-1.834 1.029 0 .152.019.304.076.419a.927.927 0 0 0 .325.362c.153.114.363.228.65.361.267.134.611.286 1.032.439.86.323 1.566.628 2.12.933.555.305.994.648 1.319.99.325.362.554.762.688 1.181.134.438.19.934.19 1.524 0 1.353-.515 2.381-1.528 3.086-1.031.705-2.484 1.047-4.356 1.047-1.223 0-2.255-.114-3.057-.323-.822-.21-1.376-.381-1.7-.534l.649-3.162c.669.267 1.356.477 2.044.61a9.822 9.822 0 0 0 2.083.229zM114.759 14.229c0-1.22.19-2.286.573-3.22.382-.914.879-1.676 1.49-2.285a6.302 6.302 0 0 1 2.121-1.39 6.52 6.52 0 0 1 2.465-.477c1.968 0 3.516.59 4.662 1.79 1.147 1.2 1.7 2.953 1.7 5.277 0 .228 0 .476-.018.743-.02.266-.039.514-.058.723h-8.885c.096.8.459 1.448 1.128 1.905.668.476 1.567.705 2.675.705.726 0 1.433-.057 2.12-.19.689-.134 1.262-.286 1.701-.477l.535 3.162c-.21.115-.497.21-.84.324-.344.114-.746.19-1.166.267-.42.076-.898.152-1.376.19-.497.057-.974.076-1.471.076-1.242 0-2.331-.19-3.248-.552a6.485 6.485 0 0 1-2.293-1.505c-.612-.628-1.051-1.39-1.338-2.266-.344-.839-.477-1.79-.477-2.8zm9.19-1.486a4.324 4.324 0 0 0-.172-.972 2.51 2.51 0 0 0-.44-.838 2.695 2.695 0 0 0-.763-.61c-.306-.152-.688-.228-1.147-.228-.44 0-.822.076-1.127.229a2.237 2.237 0 0 0-.784.59c-.21.248-.363.534-.477.857a5.782 5.782 0 0 0-.249.99h5.16v-.018z"/>
        </g>
        <path fill="#FF6448" d="M12.439 31.886L.172 21.58V3.524l12.362 10.38L30.114.115 30.131 18 12.44 31.886zm.095-6.248l12.726-9.98v-5.544L12.439 20.171l-7.395-6.21v5.372l7.49 6.305z"/>
    </g>
</svg>
